<svg width="145" height="79" viewBox="0 0 145 79" fill="none" xmlns="http://www.w3.org/2000/svg">
<path d="M0 0H145V68.1639H0V0ZM2.48927 2.35048V65.8134H142.511V2.35048H2.48927Z" fill="white"/>
<path d="M42.4647 44.3086V49.4632H47.9237V59.7723H26.088V49.4632H31.5469V44.3086H9.71118V33.9259L23.9044 8.22671H36.226L21.9548 33.9995H31.5469V23.6904H42.4647V33.9995H47.9237V44.3086H42.4647V44.3086ZM85.5903 44.3086V49.4632H91.0492V59.7723H69.2135V49.4632H74.6724V44.3086H52.8367V33.9259L67.0299 8.22671H79.3515L65.0803 33.9995H74.6724V23.6904H85.5903V33.9995H91.0492V44.3086H85.5903ZM123.257 44.3086L134.175 44.3085V59.7722H95.9622V49.3894L118.968 29.213C120.059 28.2802 120.891 27.5193 121.463 26.9302C122.035 26.3412 122.451 25.8502 122.711 25.4575C122.971 25.0648 123.127 24.7334 123.179 24.4634C123.231 24.1934 123.257 23.9357 123.257 23.6902C123.257 22.2666 122.724 21.0517 121.658 20.0452C120.592 19.0388 119.305 18.5357 117.798 18.5357H112.339C110.831 18.5357 109.545 19.0388 108.479 20.0452C107.413 21.0516 106.88 22.2667 106.88 23.6902H95.9621C95.9621 21.5793 96.3911 19.5787 97.2489 17.6889C98.1067 15.799 99.2765 14.1543 100.758 12.7552C102.24 11.3561 103.969 10.2516 105.944 9.44157C107.92 8.63156 110.051 8.22656 112.339 8.22656H117.798C120.033 8.22656 122.152 8.63156 124.154 9.44157C126.155 10.2516 127.897 11.3561 129.379 12.7552C130.86 14.1543 132.03 15.7988 132.888 17.6889C133.746 19.5789 134.175 21.5794 134.175 23.6902C134.175 25.0157 134.006 26.2307 133.668 27.3352C133.33 28.4398 132.836 29.4952 132.186 30.5016C131.536 31.508 130.73 32.5145 129.769 33.5207C128.807 34.527 127.676 35.5949 126.376 36.7239C125.96 37.1166 125.297 37.7057 124.388 38.4912C123.478 39.2767 122.386 40.2339 121.112 41.363C119.839 42.4921 118.422 43.7439 116.862 45.1185C115.302 46.4931 113.639 47.9413 111.871 49.463H123.257V44.3085V44.3086Z" fill="white"/>
<path d="M51.357 79.0001C51.2873 79.0001 51.2275 78.9437 51.2275 78.8779V73.2462C51.2275 73.1804 51.2873 73.1239 51.357 73.1239H55.4693C55.5091 73.1239 55.539 73.1334 55.5589 73.1616C55.5887 73.1804 55.5987 73.2086 55.5987 73.2462L55.5887 74.2992C55.5887 74.365 55.529 74.4214 55.4593 74.4214H52.7709V75.559H54.4636C54.5333 75.559 54.593 75.6155 54.593 75.6813V76.7437C54.593 76.8095 54.5333 76.8659 54.4636 76.8659H52.7709V78.8779C52.7709 78.9437 52.7211 79.0001 52.6514 79.0001H51.357V79.0001ZM60.4617 79.0001C59.9241 79.0001 59.5357 78.8967 59.1275 78.6899C58.7292 78.483 58.4106 78.1916 58.1915 77.8061C57.9725 77.43 57.8629 76.9787 57.8629 76.4616V73.1522C57.8629 73.0863 57.9227 73.0393 57.9924 73.0393H59.2868C59.3565 73.0393 59.4063 73.0863 59.4063 73.1522V76.4616C59.4063 76.8377 59.5158 77.1292 59.7249 77.336C59.934 77.5429 60.1232 77.6463 60.4717 77.6463C60.8202 77.6463 60.9994 77.5429 61.1986 77.3454C61.3977 77.1386 61.4973 76.8377 61.4973 76.4616V73.1522C61.4973 73.0863 61.557 73.0393 61.6267 73.0393H62.9211C62.9908 73.0393 63.0506 73.0863 63.0506 73.1522V76.4616C63.0506 76.9787 62.9411 77.43 62.722 77.8061C62.5129 78.1916 62.1943 78.483 61.796 78.6899C61.3977 78.8967 60.9994 79.0001 60.4617 79.0001V79.0001ZM67.127 79.0001C67.0573 79.0001 67.0075 78.9437 67.0075 78.8779V74.4402H65.6434C65.5737 74.4402 65.514 74.3932 65.514 74.3274V73.2462C65.514 73.1804 65.5737 73.1239 65.6434 73.1239H69.915C69.9947 73.1239 70.0444 73.1804 70.0444 73.2462V74.3274C70.0444 74.3932 69.9947 74.4402 69.915 74.4402H68.5509V78.8779C68.5509 78.9437 68.4911 79.0001 68.4214 79.0001H67.127V79.0001ZM72.6373 79.0001C72.5676 79.0001 72.5078 78.9437 72.5078 78.8779V73.2462C72.5078 73.1804 72.5676 73.1239 72.6373 73.1239H75.017C75.6742 73.1239 76.1123 73.2556 76.5006 73.5282C77.0383 73.8949 77.2573 74.5906 77.0084 75.183C76.879 75.4838 76.6599 75.6437 76.3612 75.7941C76.7894 75.8505 77.0582 76.1138 77.2175 76.3018C77.4465 76.5839 77.566 76.9223 77.566 77.3172C77.566 77.8343 77.347 78.2574 76.9288 78.5583C76.5205 78.8497 75.9629 79.0001 75.2759 79.0001H72.6373V79.0001ZM73.9715 75.277H74.9473C75.1464 75.277 75.3058 75.2394 75.4153 75.1548C75.5149 75.0701 75.5646 74.9573 75.5646 74.8069C75.5646 74.6659 75.5149 74.553 75.4153 74.4778C75.3157 74.3932 75.1664 74.3556 74.9871 74.3556H73.9715V75.277V75.277ZM73.9715 77.8437H75.1365C75.4352 77.8437 75.6642 77.7873 75.8335 77.6745C75.9828 77.5711 76.0625 77.43 76.0625 77.2326C76.0625 77.054 75.9828 76.9223 75.8335 76.8189C75.6742 76.7155 75.4551 76.6591 75.1763 76.6591H73.9715V77.8437ZM83.2356 79.0001C82.6382 79.0001 82.0905 78.8685 81.6126 78.6053C81.1247 78.342 80.7364 77.9659 80.4476 77.5146C80.1688 77.054 80.0294 76.5274 80.0294 75.9633C80.0294 75.4086 80.1688 74.8915 80.4476 74.4308C80.7364 73.9701 81.1147 73.6034 81.6026 73.3402C82.0905 73.0769 82.6382 72.9453 83.2356 72.9453C83.823 72.9453 84.3707 73.0769 84.8586 73.3402C85.3465 73.6034 85.7348 73.9701 86.0136 74.4308C86.3024 74.8915 86.4418 75.4086 86.4418 75.9633C86.4418 76.5274 86.3024 77.0445 86.0136 77.5052C85.7348 77.9659 85.3465 78.3326 84.8586 78.6053C84.3707 78.8685 83.823 79.0001 83.2356 79.0001ZM83.2555 77.6463C83.5443 77.6463 83.8131 77.5711 84.0521 77.43C84.301 77.2796 84.5001 77.0822 84.6395 76.8189C84.7889 76.5651 84.8586 76.2736 84.8586 75.9633C84.8586 75.6625 84.7889 75.371 84.6395 75.1172C84.5001 74.8633 84.301 74.6659 84.0521 74.5154C83.8131 74.3744 83.5443 74.2992 83.2555 74.2992C82.9568 74.2992 82.6879 74.3744 82.439 74.5154C82.1801 74.6659 81.981 74.8633 81.8316 75.1172C81.6823 75.3804 81.6126 75.6625 81.6126 75.9633C81.6126 76.2736 81.6823 76.5651 81.8316 76.8189C81.9909 77.0728 82.1901 77.2796 82.439 77.4206C82.6879 77.5711 82.9568 77.6463 83.2555 77.6463ZM89.0346 79.0001C88.9649 79.0001 88.9051 78.9437 88.9051 78.8779V73.2462C88.9051 73.1804 88.9649 73.1239 89.0346 73.1239H90.329C90.3987 73.1239 90.4585 73.1804 90.4585 73.2462V77.6463H92.6988C92.7685 77.6463 92.8282 77.7027 92.8282 77.7685V78.8779C92.8282 78.9437 92.7685 79.0001 92.6988 79.0001H89.0346Z" fill="white"/>
</svg>
